{
  "accessors": [
    {
      "bufferView": 2,
      "componentType": 5126,
      "count": 65532,
      "max": [
        22.244388580322266,
        13.389628410339355,
        13.973673820495605
      ],
      "min": [
        0.63723468780517578,
        0.36176633834838867,
        0
      ],
      "type": "VEC3"
    },
    {
      "bufferView": 2,
      "byteOffset": 786384,
      "componentType": 5126,
      "count": 65532,
      "max": [
        0.99980467557907104,
        0.9998319149017334,
        0.99858099222183228
      ],
      "min": [
        -0.99991309642791748,
        -0.99987637996673584,
        -0.9999849796295166
      ],
      "type": "VEC3"
    },
    {
      "bufferView": 3,
      "componentType": 5126,
      "count": 65532,
      "max": [
        0.99999421834945679,
        0.99990028142929077,
        0.99998492002487183,
        1
      ],
      "min": [
        -0.99999934434890747,
        -0.99999010562896729,
        -0.99997663497924805,
        -1
      ],
      "type": "VEC4"
    },
    {
      "bufferView": 1,
      "componentType": 5126,
      "count": 65532,
      "max": [
        0.99897897243499756,
        1.0005929470062256
      ],
      "min": [
        0.00093400001060217619,
        0.0020399999339133501
      ],
      "type": "VEC2"
    },
    {
      "bufferView": 0,
      "componentType": 5125,
      "count": 283452,
      "max": [
        65531
      ],
      "min": [
        0
      ],
      "type": "SCALAR"
    },
    {
      "bufferView": 2,
      "byteOffset": 1572768,
      "componentType": 5126,
      "count": 65532,
      "max": [
        21.970355987548828,
        13.084231376647949,
        14.136606216430664
      ],
      "min": [
        0,
        0.044175148010253906,
        0.060536861419677734
      ],
      "type": "VEC3"
    },
    {
      "bufferView": 2,
      "byteOffset": 2359152,
      "componentType": 5126,
      "count": 65532,
      "max": [
        0.99985969066619873,
        0.99996566772460938,
        0.99959278106689453
      ],
      "min": [
        -0.99996525049209595,
        -0.99997437000274658,
        -0.99977672100067139
      ],
      "type": "VEC3"
    },
    {
      "bufferView": 3,
      "byteOffset": 1048512,
      "componentType": 5126,
      "count": 65532,
      "max": [
        0.99997830390930176,
        0.99986612796783447,
        0.99999231100082397,
        1
      ],
      "min": [
        -0.99999403953552246,
        -0.99999332427978516,
        -0.9999239444732666,
        -1
      ],
      "type": "VEC4"
    },
    {
      "bufferView": 1,
      "byteOffset": 524256,
      "componentType": 5126,
      "count": 65532,
      "max": [
        0.99972999095916748,
        0.99994999170303345
      ],
      "min": [
        0.0008140000281855464,
        0.016186999157071114
      ],
      "type": "VEC2"
    },
    {
      "bufferView": 0,
      "byteOffset": 1133808,
      "componentType": 5125,
      "count": 245700,
      "max": [
        65531
      ],
      "min": [
        0
      ],
      "type": "SCALAR"
    },
    {
      "bufferView": 2,
      "byteOffset": 3145536,
      "componentType": 5126,
      "count": 38780,
      "max": [
        21.577419281005859,
        12.422439575195312,
        14.159418106079102
      ],
      "min": [
        0.22287845611572266,
        0,
        0.6788182258605957
      ],
      "type": "VEC3"
    },
    {
      "bufferView": 2,
      "byteOffset": 3610896,
      "componentType": 5126,
      "count": 38780,
      "max": [
        0.99998170137405396,
        0.99985450506210327,
        0.99964249134063721
      ],
      "min": [
        -0.99984723329544067,
        -0.99998509883880615,
        -0.99977177381515503
      ],
      "type": "VEC3"
    },
    {
      "bufferView": 3,
      "byteOffset": 2097024,
      "componentType": 5126,
      "count": 38780,
      "max": [
        0.99998760223388672,
        0.99997884035110474,
        0.99989527463912964,
        1
      ],
      "min": [
        -0.9999968409538269,
        -0.99999862909317017,
        -0.99995565414428711,
        -1
      ],
      "type": "VEC4"
    },
    {
      "bufferView": 1,
      "byteOffset": 1048512,
      "componentType": 5126,
      "count": 38780,
      "max": [
        0.9996340274810791,
        0.99985700845718384
      ],
      "min": [
        0.00097400002414360642,
        0.023215999826788902
      ],
      "type": "VEC2"
    },
    {
      "bufferView": 0,
      "byteOffset": 2116608,
      "componentType": 5125,
      "count": 147627,
      "max": [
        38779
      ],
      "min": [
        0
      ],
      "type": "SCALAR"
    }
  ],
  "asset": {
    "extras": {
      "author": "Archéomatique (https://sketchfab.com/archeomatique)",
      "license": "CC-BY-4.0 (http://creativecommons.org/licenses/by/4.0/)",
      "source": "https://sketchfab.com/models/c3ea2deca9f7429cb8eedd1c8331e19f",
      "title": "Buddha à Pattaya, Thaïlande"
    },
    "generator": "Sketchfab-3.18.7",
    "version": "2.0"
  },
  "bufferViews": [
    {
      "buffer": 0,
      "byteLength": 2707116,
      "byteOffset": 0,
      "name": "floatBufferViews",
      "target": 34963
    },
    {
      "buffer": 0,
      "byteLength": 1358752,
      "byteOffset": 2707116,
      "byteStride": 8,
      "name": "floatBufferViews",
      "target": 34962
    },
    {
      "buffer": 0,
      "byteLength": 4076256,
      "byteOffset": 4065868,
      "byteStride": 12,
      "name": "floatBufferViews",
      "target": 34962
    },
    {
      "buffer": 0,
      "byteLength": 2717504,
      "byteOffset": 8142124,
      "byteStride": 16,
      "name": "floatBufferViews",
      "target": 34962
    }
  ],
  "buffers": [
    {
      "byteLength": 10859628,
      "uri": "scene.bin"
    }
  ],
  "extensionsUsed": [
    "KHR_materials_unlit"
  ],
  "images": [
    {
      "uri": "textures/material_0_baseColor.jpeg"
    }
  ],
  "materials": [
    {
      "doubleSided": true,
      "emissiveFactor": [
        0,
        0,
        0
      ],
      "extensions": {
        "KHR_materials_unlit": {}
      },
      "name": "material_0",
      "pbrMetallicRoughness": {
        "baseColorFactor": [
          1,
          1,
          1,
          1
        ],
        "baseColorTexture": {
          "index": 0,
          "texCoord": 0
        },
        "metallicFactor": 0,
        "roughnessFactor": 1
      }
    }
  ],
  "meshes": [
    {
      "primitives": [
        {
          "attributes": {
            "NORMAL": 1,
            "POSITION": 0,
            "TANGENT": 2,
            "TEXCOORD_0": 3
          },
          "indices": 4,
          "material": 0,
          "mode": 4
        }
      ]
    },
    {
      "primitives": [
        {
          "attributes": {
            "NORMAL": 6,
            "POSITION": 5,
            "TANGENT": 7,
            "TEXCOORD_0": 8
          },
          "indices": 9,
          "material": 0,
          "mode": 4
        }
      ]
    },
    {
      "primitives": [
        {
          "attributes": {
            "NORMAL": 11,
            "POSITION": 10,
            "TANGENT": 12,
            "TEXCOORD_0": 13
          },
          "indices": 14,
          "material": 0,
          "mode": 4
        }
      ]
    }
  ],
  "nodes": [
    {
      "children": [
        1
      ],
      "name": "RootNode (gltf orientation matrix)",
      "rotation": [
        -0.70710678118654746,
        -0,
        -0,
        0.70710678118654757
      ]
    },
    {
      "children": [
        2
      ],
      "matrix": [
        0.99609029293060303,
        0.08065427839756012,
        -0.036042653024196625,
        0,
        0.029459519311785698,
        -0.68790572881698608,
        -0.72520196437835693,
        0,
        -0.083284586668014526,
        0.72130477428436279,
        -0.68759220838546753,
        0,
        -6.6960001277038828e-07,
        -5.88630018683034e-06,
        -2.4350099920411594e-05,
        1
      ],
      "name": "RootNode (model correction matrix)"
    },
    {
      "children": [
        3,
        4,
        5
      ],
      "matrix": [
        1,
        0,
        0,
        0,
        0,
        1,
        0,
        0,
        0,
        0,
        1,
        0,
        -11.122194290161133,
        -6.6948142051696777,
        -7.0797090530395508,
        1
      ],
      "name": "model.obj.cleaner.gles"
    },
    {
      "mesh": 0,
      "name": ""
    },
    {
      "mesh": 1,
      "name": ""
    },
    {
      "mesh": 2,
      "name": ""
    }
  ],
  "samplers": [
    {
      "magFilter": 9729,
      "minFilter": 9987,
      "wrapS": 10497,
      "wrapT": 10497
    }
  ],
  "scene": 0,
  "scenes": [
    {
      "name": "OSG_Scene",
      "nodes": [
        0
      ]
    }
  ],
  "textures": [
    {
      "sampler": 0,
      "source": 0
    }
  ]
}

